<svg width="151" height="173" viewBox="0 0 151 173" fill="none" xmlns="http://www.w3.org/2000/svg">
<!--    <g filter="url(#filter0_d_13_10)">-->
<!--&lt;!&ndash;        <path d="M7 2C4.23858 2 2 4.23858 2 7V166C2 168.761 4.23858 171 7 171H144C146.761 171 149 168.761 149 166V7C149 4.23858 146.761 2 144 2H7Z" stroke="#F5F5F5" stroke-width="4" stroke-linecap="round" stroke-linejoin="round"/>&ndash;&gt;-->
<!--    </g>-->
    <path d="M79.5102 98H81.7662V118.496H79.5102V98ZM74.5662 106.256V98.12H76.7982V118.136H74.5662V108.512H71.4702V117.272H62.6862V98.744H71.4702V106.256H74.5662ZM69.2382 115.112V100.904H64.9182V115.112H69.2382ZM101.9 98H104.276V118.496H101.9V98ZM94.3161 98.6C94.2921 101.744 94.0281 104.576 93.5001 107.024L100.124 115.856L98.2041 117.224L92.7561 109.784C91.2441 114.296 88.7481 117.032 85.5081 117.272V114.872C89.6121 114.224 91.8681 107.12 91.8921 98.504L94.3161 98.6ZM124.986 98H127.362V118.496H124.986V98ZM116.994 100.928C116.97 103.304 116.73 105.488 116.346 107.408L123.042 115.688L121.17 117.104L115.65 110.072C114.234 114.368 111.786 116.912 108.69 117.272V114.92C112.338 114.248 114.498 108.536 114.594 100.928H109.17V98.744H122.25V100.928H116.994ZM42.2577 127.808C39.9777 130.904 36.4737 132.848 32.7297 132.872V130.616C37.1457 130.64 41.3217 126.704 42.2097 121.856L44.6577 122.24C44.4177 123.56 43.9857 124.832 43.4097 125.984L52.1937 130.856L51.0897 132.848L42.2577 127.808ZM52.7217 135.032V137.24H43.6737V142.976H41.2497V137.24H32.2497V135.032H52.7217ZM66.7356 131.432H75.8076V133.352H55.3356V131.432H64.3836V129.32H56.7996V122.24H74.3436V124.16H59.1756V127.4H74.5836V129.32H66.7356V131.432ZM65.5596 135.056C70.4556 135.056 74.5836 135.992 74.5836 138.8C74.5836 141.608 70.4556 142.568 65.5596 142.568C60.6636 142.568 56.5356 141.608 56.5356 138.8C56.5356 135.992 60.6636 135.056 65.5596 135.056ZM65.5596 140.696C68.8956 140.696 72.0876 140.216 72.0876 138.8C72.0876 137.408 68.8956 136.928 65.5596 136.928C62.2236 136.928 59.0316 137.408 59.0316 138.8C59.0316 140.216 62.2236 140.696 65.5596 140.696ZM104.132 122.12V130.856H86.6121V122.12H88.9641V124.592H101.804V122.12H104.132ZM88.9641 128.96H101.804V126.416H88.9641V128.96ZM85.1481 132.872H105.62V134.888H96.5721V138.08H94.1721V134.888H85.1481V132.872ZM88.9881 136.736V140.24H104.564V142.256H86.5641V136.736H88.9881ZM125.13 122H127.506V134.48H125.13V127.904H120.186V125.744H125.13V122ZM114.978 129.224C113.514 131.72 111.186 133.496 108.258 133.88V131.672C112.074 130.976 114.354 126.872 114.402 122.192L116.778 122.336C116.778 124.088 116.49 125.744 115.914 127.256L122.298 132.08L120.882 133.712L114.978 129.224ZM109.89 137.672V135.608H127.506V142.496H125.082V137.672H109.89Z" fill="black"/>
    <path d="M25 16.875H56.5C57.1962 16.875 57.8639 17.1516 58.3562 17.6438C58.8484 18.1361 59.125 18.8038 59.125 19.5V61.5C59.125 62.1962 58.8484 62.8639 58.3562 63.3562C57.8639 63.8484 57.1962 64.125 56.5 64.125H25C24.3038 64.125 23.6361 63.8484 23.1438 63.3562C22.6516 62.8639 22.375 62.1962 22.375 61.5V53.625" stroke="black" stroke-width="2" stroke-linecap="round" stroke-linejoin="round"/>
    <path d="M19.3037 40.815L11.875 48.375M32.875 53.625H48.625M43.375 43.125H48.625M25 27.375C23.4425 27.375 21.9199 27.8369 20.6249 28.7022C19.3298 29.5675 18.3205 30.7974 17.7244 32.2364C17.1284 33.6753 16.9725 35.2587 17.2763 36.7863C17.5802 38.3139 18.3302 39.7171 19.4315 40.8185C20.5329 41.9198 21.9361 42.6698 23.4637 42.9737C24.9913 43.2775 26.5747 43.1216 28.0136 42.5256C29.4526 41.9295 30.6825 40.9202 31.5478 39.6251C32.4131 38.3301 32.875 36.8075 32.875 35.25C32.875 33.1614 32.0453 31.1584 30.5685 29.6815C29.0916 28.2047 27.0886 27.375 25 27.375Z" stroke="black" stroke-width="2" stroke-linecap="round" stroke-linejoin="round"/>
    <defs>
        <filter id="filter0_d_13_10" x="0" y="0" width="151" height="173" filterUnits="userSpaceOnUse" color-interpolation-filters="sRGB">
            <feFlood flood-opacity="0" result="BackgroundImageFix"/>
            <feColorMatrix in="SourceAlpha" type="matrix" values="0 0 0 0 0 0 0 0 0 0 0 0 0 0 0 0 0 0 127 0" result="hardAlpha"/>
            <feOffset dy="4"/>
            <feGaussianBlur stdDeviation="2"/>
            <feComposite in2="hardAlpha" operator="out"/>
            <feColorMatrix type="matrix" values="0 0 0 0 0 0 0 0 0 0 0 0 0 0 0 0 0 0 0.25 0"/>
            <feBlend mode="normal" in2="BackgroundImageFix" result="effect1_dropShadow_13_10"/>
            <feBlend mode="normal" in="SourceGraphic" in2="effect1_dropShadow_13_10" result="shape"/>
        </filter>
    </defs>
</svg>
