<svg width="102" height="130" viewBox="0 0 102 130" fill="none" xmlns="http://www.w3.org/2000/svg">
<path d="M15 113C16.3261 113 17.5979 113.527 18.5355 114.464C19.4732 115.402 20 116.674 20 118" stroke="white" stroke-width="2" stroke-linecap="round" stroke-linejoin="round"/>
<path d="M18 127C16.45 126.63 14.9796 125.983 13.66 125.09L15.48 122.48C15.7792 122.072 16.2222 121.792 16.7195 121.697C17.2169 121.602 17.7317 121.7 18.16 121.97C18.49 122.18 18.83 122.37 19.16 122.56C19.4084 122.681 19.6289 122.853 19.8077 123.064C19.9864 123.275 20.1194 123.521 20.1983 123.786C20.2773 124.051 20.3004 124.329 20.2663 124.604C20.2321 124.878 20.1415 125.142 20 125.38L19.38 126.33C19.2692 126.589 19.0687 126.8 18.8151 126.923C18.5616 127.046 18.2721 127.073 18 127ZM6.67 113.67L7.67 113.05C7.9019 112.899 8.16248 112.799 8.43529 112.754C8.70811 112.709 8.98723 112.722 9.25503 112.79C9.52284 112.859 9.77352 112.982 9.99124 113.153C10.209 113.323 10.389 113.537 10.52 113.78C10.71 114.14 10.9 114.48 11.11 114.78C11.38 115.208 11.4775 115.723 11.3829 116.22C11.2882 116.718 11.0084 117.161 10.6 117.46L7.94 119.31C7.03949 118.002 6.3823 116.542 6 115C5.93985 114.735 5.97382 114.457 6.09608 114.215C6.21833 113.972 6.42125 113.779 6.67 113.67Z" stroke="white" stroke-width="2" stroke-linecap="round" stroke-linejoin="round"/>
<path d="M7.94 119.31C8.67485 120.463 9.54061 121.526 10.52 122.48C11.4736 123.459 12.5374 124.325 13.69 125.06" stroke="white" stroke-width="2" stroke-linecap="round" stroke-linejoin="round"/>
<path d="M14 109.06C14.3318 109.02 14.6658 109 15 109C17.3869 109 19.6761 109.948 21.364 111.636C23.0518 113.324 24 115.613 24 118C24.0003 118.334 23.9802 118.668 23.94 119" stroke="white" stroke-width="2" stroke-linecap="round" stroke-linejoin="round"/>
<path d="M42.3091 116.6V114.152H34.7371V113.12H43.5091V116.6H42.3091ZM44.2651 118.208H39.7411V119.864H43.5451V123.26H42.3451V120.884H34.6531V119.864H38.5411V118.208H34.0291V117.188H44.2651V118.208ZM51.9801 116.6V118.952H45.9921V113.18H47.1561V114.944H50.8161V113.18H51.9801V115.484H54.0321V113H55.2201V120.608H54.0321V116.6H51.9801ZM47.1561 117.932H50.8161V115.952H47.1561V117.932ZM47.7081 122.036H55.4361V123.116H46.4961V119.84H47.7081V122.036ZM63.4871 116.156C63.2351 117.368 62.0831 118.184 60.3791 118.184C58.4351 118.184 57.2111 117.14 57.2111 115.652C57.2111 114.176 58.4351 113.12 60.3791 113.12C62.0351 113.12 63.1751 113.9 63.4631 115.052H65.5751V113H66.7631V118.328H65.5751V116.156H63.4871ZM58.3991 115.652C58.3991 116.612 59.2031 117.2 60.3791 117.2C61.5551 117.2 62.3471 116.612 62.3471 115.652C62.3471 114.692 61.5551 114.104 60.3791 114.104C59.2031 114.104 58.3991 114.692 58.3991 115.652ZM67.8191 122.336L67.0871 123.128L65.2391 121.448C64.6511 122.444 63.7511 123.044 62.7311 123.116V122.072C63.7871 121.94 64.7231 120.716 64.8551 118.736L65.9951 118.82C65.9591 119.432 65.8391 119.996 65.6711 120.488L67.8191 122.336ZM61.2311 119.972V118.772H62.3111V123.116H58.0271V118.772H59.0951V119.972H61.2311ZM59.0951 122.168H61.2311V120.896H59.0951V122.168ZM77.034 123.248V113H78.234V123.248H77.034ZM72.198 122.768C70.374 122.768 69.09 121.256 69.09 118.004C69.09 114.752 70.374 113.24 72.198 113.24C74.01 113.24 75.294 114.752 75.294 118.004C75.294 121.256 74.01 122.768 72.198 122.768ZM72.198 121.676C73.266 121.676 74.106 120.608 74.106 118.004C74.106 115.412 73.266 114.332 72.198 114.332C71.106 114.332 70.278 115.412 70.278 118.004C70.278 120.608 71.106 121.676 72.198 121.676ZM85.4363 122.996V114.488H83.4443V113.384H86.6963V122.996H85.4363ZM90.8621 122.996V114.488H88.8701V113.384H92.1221V122.996H90.8621ZM94.3439 122.996V122.18L97.7519 118.76C98.9759 117.524 99.4559 116.744 99.4559 116.06C99.4559 114.932 98.6879 114.272 97.4879 114.272C96.1919 114.272 95.4959 115.256 95.4959 116.324H94.2359C94.2359 114.584 95.4959 113.156 97.4999 113.156C99.4319 113.156 100.704 114.32 100.704 116.048C100.704 117.08 100.116 117.956 98.6759 119.432L96.1559 121.904H101.028V122.996H94.3439Z" fill="white"/>
<path d="M25.9131 97.39V88.5H27.2991V97.39H25.9131ZM16.5751 95.5V94.268C19.9351 94.254 22.1891 92.98 22.1891 90.586V90.012H16.5751V88.794H23.5891V90.418C23.5891 93.848 20.6911 95.5 16.5751 95.5ZM17.1631 100.302V96.494H18.5631V99.056H27.6211V100.302H17.1631ZM39.2679 92.504V89.816H30.4339V88.64H40.6679V92.504H39.2679ZM29.6079 93.204H41.5499V94.352H29.6079V93.204ZM39.3519 96.634V95.276H40.7099V100.316H30.4339V95.276H31.8059V96.634H39.3519ZM31.8059 99.196H39.3519V97.74H31.8059V99.196ZM58.1565 88.5V97.376H56.7705V88.5H58.1565ZM51.1985 92.77C50.3025 94.268 48.9025 95.346 47.1805 95.57V94.268C49.4485 93.862 50.8485 91.398 50.8765 88.612L52.2625 88.696C52.2625 89.718 52.0805 90.712 51.7445 91.608L55.5805 94.436L54.7545 95.444L51.1985 92.77ZM49.4205 99.07H58.4785V100.302H48.0205V96.494H49.4205V99.07ZM70.1673 96.816V90.222H61.1933V88.92H71.6093V96.816H70.1673ZM66.3453 98.58H72.4073V99.882H60.4653V98.58H64.9173V93.246H66.3453V98.58ZM74.7861 93.134V88.5H76.1861V91.902H85.1321V93.134H74.7861ZM73.9321 95.682V94.45H85.8741V95.682H73.9321ZM74.7581 100.316V96.746H76.1721V99.084H85.2581V100.316H74.7581Z" fill="white"/>
<path d="M16.9495 11.795C13.5895 17.08 8.51451 20.545 3.01951 20.545V17.255C9.49451 17.255 15.4445 10.255 16.9845 1.89L20.5545 2.52C20.1345 4.83 19.4345 7.035 18.4545 9.03L31.6145 17.885L29.7245 20.65L16.9495 11.795ZM2.42451 26.95H32.2795V30.205H2.42451V26.95ZM60.5215 31.64V1.75H63.9865V31.64H60.5215ZM37.8065 29.855V2.835H54.7465V29.855H37.8065ZM41.2715 26.6H51.2815V6.09H41.2715V26.6ZM97.6535 1.75V18.27H94.1885V1.75H97.6535ZM80.3635 11.025C78.1585 14.385 74.5885 16.73 70.2135 17.325V14.175C75.8835 13.16 79.4185 8.12 79.4535 2.03L82.9185 2.24C82.9185 4.41 82.5335 6.44 81.7985 8.295L91.2485 14.385L89.4635 16.94L80.3635 11.025ZM85.1235 19.25C92.3685 19.25 98.1085 20.965 98.1085 25.445C98.1085 29.925 92.3685 31.64 85.1235 31.64C77.8785 31.64 72.1385 29.925 72.1385 25.445C72.1385 20.965 77.8785 19.25 85.1235 19.25ZM85.1235 28.77C90.3035 28.77 94.3985 27.755 94.3985 25.445C94.3985 23.17 90.3035 22.12 85.1235 22.12C79.9785 22.12 75.8485 23.17 75.8485 25.445C75.8485 27.755 79.9785 28.77 85.1235 28.77ZM43.653 36.75V58.94H40.188V36.75H43.653ZM26.258 47.425C24.018 51.17 20.518 53.865 16.213 54.425V51.17C21.883 50.155 25.383 43.995 25.453 37.03L28.918 37.24C28.918 39.795 28.463 42.28 27.623 44.52L37.213 51.59L35.148 54.11L26.258 47.425ZM21.813 63.175H44.458V66.255H18.313V56.735H21.813V63.175ZM80.68 57.54V41.055H58.245V37.8H84.285V57.54H80.68ZM71.125 61.95H86.28V65.205H56.425V61.95H67.555V48.615H71.125V61.95Z" fill="white"/>
</svg>
